<svg id="圖層_1" data-name="圖層 1" xmlns="http://www.w3.org/2000/svg" viewBox="0 0 713.43 601.89"><defs><style>.cls-1{fill:#d3d3d3;}.cls-2{fill:#4e80c1;}.cls-3{fill:#1f9c61;}.cls-4{fill:#f2f2f2;}.cls-5{fill:#f6d957;}.cls-6{fill:#fff;}.cls-7{fill:#43b07d;}.cls-8{fill:#34485c;}</style></defs><rect class="cls-1" x="82.38" y="91.85" width="464.31" height="465.23" rx="25.15"/><path class="cls-2" d="M508.52,570.2H106.44a38.31,38.31,0,0,1-38.31-38.31V119.26A38.31,38.31,0,0,1,106.44,81L546.83,531.89A38.32,38.32,0,0,1,508.52,570.2Z"/><path class="cls-3" d="M106.44,570.2a38.31,38.31,0,0,1-38.31-38.31V119.26A38.31,38.31,0,0,1,106.44,81H508.52a38.31,38.31,0,0,1,38.31,38.31Z"/><path class="cls-4" d="M546.83,531.89c0,21.15-14.85,40.06-41,38.31l-219-220.46,40.77-42.88Z"/><path class="cls-5" d="M106.44,570.2a38.31,38.31,0,0,1-38.31-38.31L313.45,281.46,508.52,81a38.31,38.31,0,0,1,38.31,38.31L329.62,349Z"/><path class="cls-6" d="M174.74,180.33v26.83h36.32s-.71,26.94-35.5,27.76c0,0-26.48,2.82-38.78-24.95,0,0-14.06-32.16,17.05-53.6,5.27-4.39,29.69-12.65,46.45,4.75l20.38-19.69s-12.26-18.57-44.51-19.2a65,65,0,0,0-33.26,8.22c-15.49,8.74-36.42,27-37.74,62.3-.9,23.92,16.34,66.78,65,70.29,0,0,54.65,6.68,69.24-51.31,0,0,4.22-17.22.7-31.64Z"/><g id="_0" data-name="0"><polygon class="cls-7" points="255.92 17.06 418.45 17.06 468.4 101.5 517.26 17.06 680.54 17.06 469.13 382.7 255.92 17.06"/><polygon class="cls-8" points="340.19 17.06 418.45 17.06 468.4 101.5 517.26 17.06 595.08 17.06 469.13 238.11 340.19 17.06"/></g></svg>